<?xml version="1.0" standalone="no"?><!DOCTYPE svg PUBLIC "-//W3C//DTD SVG 1.1//EN"
        "http://www.w3.org/Graphics/SVG/1.1/DTD/svg11.dtd">
<svg t="1584023864138" class="icon" viewBox="0 0 1024 1024" version="1.1" xmlns="http://www.w3.org/2000/svg" p-id="2211" width="16" height="16"><path d="M796.444444 1024H227.555556a113.777778 113.777778 0 0 1-113.777778-113.777778V170.666667a113.777778 113.777778 0 0 1 113.777778-113.777778h113.777777v170.666667h341.333334V56.888889h113.777777a113.777778 113.777778 0 0 1 113.777778 113.777778v739.555555a113.777778 113.777778 0 0 1-113.777778 113.777778zM711.111111 398.222222h-398.222222a28.444444 28.444444 0 0 0 0 56.888889h398.222222a28.444444 28.444444 0 0 0 0-56.888889z m0 170.666667h-398.222222a28.444444 28.444444 0 0 0 0 56.888889h398.222222a28.444444 28.444444 0 0 0 0-56.888889z m0 170.666667h-398.222222a28.444444 28.444444 0 0 0 0 56.888888h398.222222a28.444444 28.444444 0 0 0 0-56.888888zM568.888889 170.666667H455.111111a56.888889 56.888889 0 0 1-56.888889-56.888889V56.888889a56.888889 56.888889 0 0 1 56.888889-56.888889h113.777778a56.888889 56.888889 0 0 1 56.888889 56.888889v56.888889a56.888889 56.888889 0 0 1-56.888889 56.888889z" fill="#e6e6e6" p-id="2212"></path></svg>