<?xml version="1.0" standalone="no"?><!DOCTYPE svg PUBLIC "-//W3C//DTD SVG 1.1//EN"
    "http://www.w3.org/Graphics/SVG/1.1/DTD/svg11.dtd">
<svg version="1.0" xmlns="http://www.w3.org/2000/svg"
     xmlns:xlink="http://www.w3.org/1999/xlink" width="64" height="64"
     viewBox="0 0 340.000000 250.000000" preserveAspectRatio="xMidYMid meet"
     color-interpolation-filters="sRGB" class="el-tooltip" style="margin: auto;">


    <g  fill="#fff" class="iconlinesvg-g iconlinesvg"
       transform="translate(91.55500030517578,107)">
        <g class="tp-name">
            <g transform="translate(0, 2.362499999999999)">
                <g fill="#fff">
                    <path
                        d="M31.14-22.36L27.49 5.04L23.31 5.04L17.19-13.59L11.12 5.04L6.93 5.04L3.24-22.36L1.89-22.36L1.89-25.88L6.34-25.88L9.58-1.71L15.71-20.34L18.72-20.34L24.84-1.71L28.08-25.88L32.53-25.88L32.53-22.36L31.14-22.36Z"
                        transform="translate(-1.89, 26.1)"></path>
                </g>
            </g>
            <g transform="translate(34.644999999999996, 2.362499999999999)">
                <g fill="#fff">
                    <path d="M8.55 5.04L8.55 5.04L5.00 5.04L5.00-25.70L8.55-25.70L8.55 5.04Z"
                          transform="translate(-4.995, 26.1)"></path>
                </g>
            </g>
            <g transform="translate(42.199999999999996, 2.362499999999999)">
                <g fill="#fff">
                    <path
                        d="M15.84 5.17L15.84 5.17L3.65 5.17L3.65-23.80L7.20-23.80L7.20-12.11L15.84-12.11L15.84-12.11Q17.77-12.11 19.48-11.43L19.48-11.43L19.48-11.43Q21.20-10.75 22.48-9.56L22.48-9.56L22.48-9.56Q23.76-8.37 24.50-6.79L24.50-6.79L24.50-6.79Q25.24-5.22 25.24-3.46L25.24-3.46L25.24-3.46Q25.24-1.67 24.50-0.09L24.50-0.09L24.50-0.09Q23.76 1.48 22.48 2.65L22.48 2.65L22.48 2.65Q21.20 3.82 19.48 4.50L19.48 4.50L19.48 4.50Q17.77 5.17 15.84 5.17ZM7.20-8.55L7.20 1.67L15.84 1.67L15.84 1.67Q17.05 1.67 18.11 1.26L18.11 1.26L18.11 1.26Q19.17 0.85 19.98 0.16L19.98 0.16L19.98 0.16Q20.79-0.54 21.24-1.46L21.24-1.46L21.24-1.46Q21.69-2.38 21.69-3.46L21.69-3.46L21.69-3.46Q21.69-4.50 21.24-5.42L21.24-5.42L21.24-5.42Q20.79-6.34 19.98-7.04L19.98-7.04L19.98-7.04Q19.17-7.74 18.11-8.14L18.11-8.14L18.11-8.14Q17.05-8.55 15.84-8.55L15.84-8.55L7.20-8.55ZM14.35-8.55L14.35-8.55L4.00-8.55L4.00-12.11L14.35-12.11L14.35-12.11Q15.57-12.11 16.65-12.51L16.65-12.51L16.65-12.51Q17.73-12.91 18.52-13.59L18.52-13.59L18.52-13.59Q19.30-14.26 19.78-15.19L19.78-15.19L19.78-15.19Q20.25-16.11 20.25-17.19L20.25-17.19L20.25-17.19Q20.25-18.22 19.78-19.15L19.78-19.15L19.78-19.15Q19.30-20.07 18.52-20.77L18.52-20.77L18.52-20.77Q17.73-21.46 16.65-21.87L16.65-21.87L16.65-21.87Q15.57-22.27 14.35-22.27L14.35-22.27L2.52-22.27L2.52-25.83L14.35-25.83L14.35-25.83Q16.29-25.83 18.02-25.15L18.02-25.15L18.02-25.15Q19.75-24.48 21.02-23.31L21.02-23.31L21.02-23.31Q22.27-22.14 23.02-20.56L23.02-20.56L23.02-20.56Q23.76-18.99 23.76-17.19L23.76-17.19L23.76-17.19Q23.76-15.39 23.02-13.81L23.02-13.81L23.02-13.81Q22.27-12.24 21.02-11.07L21.02-11.07L21.02-11.07Q19.75-9.90 18.02-9.22L18.02-9.22L18.02-9.22Q16.29-8.55 14.35-8.55Z"
                        transform="translate(-2.52, 26.1)"></path>
                </g>
            </g>
            <g transform="translate(68.925, 2.362499999999999)">
                <g fill="#fff">
                    <path
                        d="M22.90 5.17L22.90 5.17L3.69 5.17L3.69-22.09L2.79-22.09L2.79-25.65L7.20-25.65L7.20 1.67L22.90 1.67L22.90 5.17Z"
                        transform="translate(-2.79, 26.1)"></path>
                </g>
            </g>
            <g transform="translate(93.03999999999999, 0)">
                <g class="imagesvg">
                    <rect fill="#fff" fill-opacity="0" stroke-width="2" x="0" y="0" width="36"
                          height="36" class="image-rect"></rect>
                    <svg filter="url(#colors8749589505)" x="0" y="0" width="36" height="36"
                         filtersec="colorsf4217181570" class="image-svg-svg">
                        <svg xmlns="http://www.w3.org/2000/svg" viewBox="0 0 100 100">
                            <circle fill="#333333" cx="49.31" cy="78.51" r="11.5"
                                    transform="matrix(.69 0 0 .69 15.5 15.5)"></circle>
                            <circle fill="#333333" cx="-13.96" cy="47.66" r="8.02"
                                    transform="matrix(.69 0 0 .69 15.5 15.5)"></circle>
                            <circle fill="#333333" cx="21.07" cy="28.14" r="8.02"
                                    transform="matrix(.69 0 0 .69 15.5 15.5)"></circle>
                            <circle fill="#333333" cx="48.09" cy="13.32" r="6.8"
                                    transform="matrix(.69 0 0 .69 15.5 15.5)"></circle>
                            <circle fill="#333333" cx="17.41" cy="-8.99" r="5.23"
                                    transform="matrix(.69 0 0 .69 15.5 15.5)"></circle>
                            <circle fill="#333333" cx="47.39" cy="-17.01" r="4.36"
                                    transform="matrix(.69 0 0 .69 15.5 15.5)"></circle>
                            <circle fill="#333333" cx="-7.17" cy="13.49" r="6.8"
                                    transform="matrix(.69 0 0 .69 15.5 15.5)"></circle>
                            <circle fill="#333333" cx="-5.94" cy="75.72" r="11.5"
                                    transform="matrix(.69 0 0 .69 15.5 15.5)"></circle>
                            <circle fill="#333333" cx="102.47" cy="75.72" r="11.5"
                                    transform="matrix(.69 0 0 .69 15.5 15.5)"></circle>
                            <circle fill="#333333" cx="18.11" cy="100.64" r="11.5"
                                    transform="matrix(.69 0 0 .69 15.5 15.5)"></circle>
                            <circle fill="#333333" cx="79.64" cy="100.64" r="11.5"
                                    transform="matrix(.69 0 0 .69 15.5 15.5)"></circle>
                            <circle fill="#333333" cx="75.8" cy="61.25" r="11.5"
                                    transform="matrix(.69 0 0 .69 15.5 15.5)"></circle>
                            <circle fill="#333333" cx="75.8" cy="28.14" r="11.5"
                                    transform="matrix(.69 0 0 .69 15.5 15.5)"></circle>
                            <circle fill="#333333" cx="110.14" cy="44.17" r="11.5"
                                    transform="matrix(.69 0 0 .69 15.5 15.5)"></circle>
                            <circle fill="#333333" cx="102.47" cy="14.19" r="11.5"
                                    transform="matrix(.69 0 0 .69 15.5 15.5)"></circle>
                            <circle fill="#333333" cx="79.64" cy="-8.99" r="11.5"
                                    transform="matrix(.69 0 0 .69 15.5 15.5)"></circle>
                            <circle fill="#333333" cx="21.07" cy="61.25" r="11.5"
                                    transform="matrix(.69 0 0 .69 15.5 15.5)"></circle>
                            <circle fill="#333333" cx="49.31" cy="109.36" r="11.5"
                                    transform="matrix(.69 0 0 .69 15.5 15.5)"></circle>
                            <circle fill="#333333" cx="49.31" cy="47.66" r="11.5"
                                    transform="matrix(.69 0 0 .69 15.5 15.5)"></circle>
                        </svg>
                    </svg>
                    <defs>
                        <filter id="colors8749589505">
                            <feColorMatrix type="matrix"
                                           values="0 0 0 0 0.99609375  0 0 0 0 0.99609375  0 0 0 0 0.99609375  0 0 0 1 0"
                                           class="icon-fecolormatrix"></feColorMatrix>
                        </filter>
                        <filter id="colorsf4217181570">
                            <feColorMatrix type="matrix"
                                           values="0 0 0 0 0.99609375  0 0 0 0 0.99609375  0 0 0 0 0.99609375  0 0 0 1 0"
                                           class="icon-fecolormatrix"></feColorMatrix>
                        </filter>
                        <filter id="colorsb6177671152">
                            <feColorMatrix type="matrix"
                                           values="0 0 0 0 0  0 0 0 0 0  0 0 0 0 0  0 0 0 1 0"
                                           class="icon-fecolormatrix"></feColorMatrix>
                        </filter>
                    </defs>
                </g>
            </g>
            <g transform="translate(133.04, 2.362499999999999)">
                <g fill="#fff">
                    <path
                        d="M15.62 4.50L15.62 4.50L15.62 4.50Q12.91 4.50 10.53 3.31L10.53 3.31L10.53 3.31Q8.14 2.11 6.37 0.02L6.37 0.02L6.37 0.02Q4.59-2.07 3.55-4.84L3.55-4.84L3.55-4.84Q2.52-7.60 2.52-10.80L2.52-10.80L2.52-10.80Q2.52-13.95 3.55-16.74L3.55-16.74L3.55-16.74Q4.59-19.53 6.37-21.60L6.37-21.60L6.37-21.60Q8.14-23.67 10.53-24.88L10.53-24.88L10.53-24.88Q12.91-26.10 15.62-26.10L15.62-26.10L15.62-26.10Q18.77-26.10 21.49-24.52L21.49-24.52L21.49-24.52Q24.21-22.95 26.10-20.02L26.10-20.02L23.13-18.09L23.13-18.09Q21.73-20.25 19.80-21.40L19.80-21.40L19.80-21.40Q17.86-22.54 15.62-22.54L15.62-22.54L15.62-22.54Q13.63-22.54 11.90-21.62L11.90-21.62L11.90-21.62Q10.17-20.70 8.87-19.10L8.87-19.10L8.87-19.10Q7.56-17.50 6.82-15.37L6.82-15.37L6.82-15.37Q6.08-13.23 6.08-10.80L6.08-10.80L6.08-10.80Q6.08-8.37 6.82-6.23L6.82-6.23L6.82-6.23Q7.56-4.09 8.87-2.48L8.87-2.48L8.87-2.48Q10.17-0.85 11.90 0.07L11.90 0.07L11.90 0.07Q13.63 0.99 15.62 0.99L15.62 0.99L15.62 0.99Q17.73 0.99 19.60-0.07L19.60-0.07L19.60-0.07Q21.46-1.13 22.86-3.06L22.86-3.06L22.86-9.04L12.96-9.04L12.96-12.55L26.37-12.55L26.37-2.02L26.10-1.57L26.10-1.57Q24.21 1.35 21.49 2.92L21.49 2.92L21.49 2.92Q18.77 4.50 15.62 4.50Z"
                        transform="translate(-2.52, 26.1)"></path>
                </g>
            </g>
        </g> <!---->
    </g>
</svg>