<?xml version="1.0" standalone="no"?><!DOCTYPE svg PUBLIC "-//W3C//DTD SVG 1.1//EN"
    "http://www.w3.org/Graphics/SVG/1.1/DTD/svg11.dtd">
<svg t="1569249828147" class="icon" viewBox="0 0 1024 1024" version="1.1" xmlns="http://www.w3.org/2000/svg" p-id="2587" width="16" height="16"><path d="M890.2 115H133.8c-20.9 0-37.8 16.9-37.8 37.8v37.8c0 20.9 16.9 37.8 37.8 37.8h756.4c20.9 0 37.8-16.9 37.8-37.8v-37.8c0-20.9-16.9-37.8-37.8-37.8zM890.2 455.3H398.5c-20.9 0-37.8 16.9-37.8 37.8v37.8c0 20.9 16.9 37.8 37.8 37.8h491.6c20.9 0 37.8-16.9 37.8-37.8v-37.8c0.1-20.9-16.8-37.8-37.7-37.8zM890.2 795.6H133.8c-20.9 0-37.8 16.9-37.8 37.8v37.8c0 20.9 16.9 37.8 37.8 37.8h756.4c20.9 0 37.8-16.9 37.8-37.8v-37.8c0-20.9-16.9-37.8-37.8-37.8zM266.2 600.7V423.3c0-22-29.2-33.1-46.2-17.5l-97.1 88.7c-10.6 9.7-10.6 25.3 0 35l97.1 88.7c17 15.5 46.2 4.5 46.2-17.5z" p-id="2588" fill="#ffffff"></path></svg>