<?xml version="1.0" standalone="no"?><!DOCTYPE svg PUBLIC "-//W3C//DTD SVG 1.1//EN"
    "http://www.w3.org/Graphics/SVG/1.1/DTD/svg11.dtd">
<svg t="1569249809936" class="icon" viewBox="0 0 1024 1024" version="1.1" xmlns="http://www.w3.org/2000/svg" p-id="1743" width="16" height="16"><path d="M133.8 115h756.4c20.9 0 37.8 16.9 37.8 37.8v37.8c0 20.9-16.9 37.8-37.8 37.8H133.8c-20.9 0-37.8-16.9-37.8-37.8v-37.8c0-20.9 16.9-37.8 37.8-37.8zM133.8 455.3h491.6c20.9 0 37.8 16.9 37.8 37.8v37.8c0 20.9-16.9 37.8-37.8 37.8H133.8c-20.9 0-37.8-16.9-37.8-37.8v-37.8c0-20.9 16.9-37.8 37.8-37.8zM133.8 795.6h756.4c20.9 0 37.8 16.9 37.8 37.8v37.8c0 20.9-16.9 37.8-37.8 37.8H133.8c-20.9 0-37.8-16.9-37.8-37.8v-37.8c0-20.9 16.9-37.8 37.8-37.8zM757.8 600.7V423.3c0-22 29.2-33.1 46.2-17.5l97.1 88.7c10.6 9.7 10.6 25.3 0 35L804 618.1c-17 15.6-46.2 4.6-46.2-17.4z" p-id="1744" fill="#ffffff"></path></svg>