<?xml version="1.0" standalone="no"?><!DOCTYPE svg PUBLIC "-//W3C//DTD SVG 1.1//EN"
        "http://www.w3.org/Graphics/SVG/1.1/DTD/svg11.dtd">
<svg t="1569684223062" class="icon" viewBox="0 0 1024 1024" version="1.1" xmlns="http://www.w3.org/2000/svg" p-id="4429" width="16" height="16"><path d="M273.289 62.521c-116.758 0-211.31 94.231-211.31 210.989s94.75 210.99 211.508 210.99H484.5V273.931c0-116.758-94.453-211.41-211.211-211.41z" p-id="4430" fill="#e6e6e6"></path><path d="M961.922 273.261c0-116.758-94.703-211.074-211.461-211.074S539 157.173 539 273.931V484h211.513c116.758 0 211.409-93.981 211.409-210.739z" p-id="4431" fill="#e6e6e6"></path><path d="M62.078 750.933c0 116.758 94.453 211.419 211.211 211.419S484.5 867.714 484.5 750.956V539.5H273.487c-116.758 0-211.409 94.675-211.409 211.433zM750.513 539.5H538.5v211.456c0 116.758 94.953 211.409 211.711 211.409s211.561-94.675 211.561-211.433S867.271 539.5 750.513 539.5z" p-id="4432" fill="#e6e6e6"></path></svg>