<?xml version="1.0" standalone="no"?><!DOCTYPE svg PUBLIC "-//W3C//DTD SVG 1.1//EN"
        "http://www.w3.org/Graphics/SVG/1.1/DTD/svg11.dtd">
<svg t="1573486795407" class="icon" viewBox="0 0 1024 1024" version="1.1" xmlns="http://www.w3.org/2000/svg"
     p-id="15024" width="36" height="36">
    <path d="M509.835707 702.789301m-34.844599 0a34.051 34.051 0 1 0 69.689199 0 34.051 34.051 0 1 0-69.689199 0Z"
          p-id="15025" fill="#b5b4b4"></path>
    <path d="M553.129746 278.276864c0-1.877767-1.521656-3.399423-3.399423-3.399423L465.454918 274.877441c-1.877767 0-3.399423 1.521656-3.399423 3.399423l0 2.410909c0 1.877767 1.521656 3.399423 3.399423 3.399423l84.275405 0c1.877767 0 3.399423-1.521656 3.399423-3.399423L553.129746 278.276864z"
          p-id="15026" fill="#b5b4b4"></path>
    <path d="M640.228453 304.553321 379.517663 304.553321c-6.801916 0-13.651928 5.859451-13.651928 11.645225L365.865735 632.222105c0 5.785773 6.850012 8.998955 13.651928 8.998955l260.71079 0c6.80294 0 11.139711-3.213181 11.139711-8.998955L651.368164 316.198545C651.367141 310.412772 647.030369 304.553321 640.228453 304.553321z"
          p-id="15027" fill="#b5b4b4"></path>
    <path d="M511.62547 64.993247c-246.710938 0-446.708971 199.999057-446.708971 446.708971S264.914532 958.411189 511.62547 958.411189s446.708971-199.999057 446.708971-446.708971S758.336408 64.993247 511.62547 64.993247zM676.949796 741.605352c0 14.688537-9.93221 26.5067-23.119557 26.5067L369.682667 768.112052c-13.187347 0-25.307386-11.818163-25.307386-26.5067L344.375282 281.504372c0-14.688537 12.120039-27.092032 25.307386-27.092032l284.147572 0c13.187347 0 23.119557 12.404518 23.119557 27.092032L676.949796 741.605352z"
          p-id="15028" fill="#b5b4b4"></path>
</svg>