<?xml version="1.0" standalone="no"?><!DOCTYPE svg PUBLIC "-//W3C//DTD SVG 1.1//EN"
        "http://www.w3.org/Graphics/SVG/1.1/DTD/svg11.dtd">
<svg t="1570178717695" class="icon" viewBox="0 0 1024 1024" version="1.1" xmlns="http://www.w3.org/2000/svg" p-id="8614"
     width="48" height="48">
    <path d="M715.788997 292.039284c-1.317718 0-2.115715 0.540183-2.552567 0.953504l-52.133759 74.736513c-3.215519 4.608944-8.391246 7.342596-13.90561 7.342596L530.619928 375.071897c-5.234042 0-10.1806-2.464583-13.427834-6.687829l-58.970956-76.737644c-0.184153-0.16983-0.481867-0.346822-1.044558-0.346822-0.469591 0-0.85222 0.135046-1.071158 0.248607l-0.002046 0.046038-11.407265 409.884005c-0.264976 9.534018-7.856178 17.106805-17.106805 17.106805-0.051154 0-0.10333 0-0.154484-0.001023-19.098729-0.173922-37.879281-4.336807-55.816822-12.372023-0.114584-0.050131-0.227122-0.10333-0.33966-0.15653-21.668688-10.288023-33.568051-28.375955-34.411064-52.307681-0.631236-17.925264 4.973158-35.975342 9.477749-50.478427 1.033304-3.328057 2.009316-6.470937 2.805266-9.283365 7.516518-26.568185 10.751475-50.607334 10.177531-75.652163-0.829712-36.206557-25.616727-67.29161-61.679031-77.350464-0.862451-0.240422-1.653286-0.363191-2.349999-0.363191-3.929624 0-5.442749 5.042727-5.694425 6.985543-0.710013 5.487764 2.525967 6.390115 4.264169 6.875051 20.031771 5.588025 34.640232 16.644376 43.420245 32.862131 18.61993 34.394694 5.221765 80.656014-4.561883 114.434818-0.765259 2.643621-1.502894 5.186981-2.188353 7.611664-8.118085 28.691062-8.2828 48.152981-0.608728 71.808478 12.606307 38.865524 60.632427 49.168893 98.702 50.968479 1.030235 0.049108 1.920308 0.174945 2.581213 0.288507 0.60259-0.002046 1.206203-0.008185 1.802655-0.019438l0.582129-0.010231c0.089007-0.001023 0.179038-0.002046 0.268045-0.002046l281.901653 0c4.411491 0 8.54573-1.801632 11.642572-5.074443 3.058989-3.231888 4.680559-7.466387 4.564952-11.920848l-12.906067-421.26467C718.926762 292.063838 715.917904 292.039284 715.788997 292.039284zM527.331771 515.361818c-27.027545 0-49.016455-21.98891-49.016455-49.016455 0-27.027545 21.98891-49.016455 49.016455-49.016455s49.016455 21.98891 49.016455 49.016455C576.347203 493.372908 554.359316 515.361818 527.331771 515.361818zM656.557157 515.361818c-27.027545 0-49.016455-21.98891-49.016455-49.016455 0-27.027545 21.98891-49.016455 49.016455-49.016455 27.027545 0 49.016455 21.98891 49.016455 49.016455C705.572589 493.372908 683.584702 515.361818 656.557157 515.361818z"
          p-id="8615" fill="#e5e9ef"></path>
    <path d="M527.331771 447.753056c-10.252215 0-18.592307 8.340092-18.592307 18.592307 0 10.252215 8.340092 18.592307 18.592307 18.592307 10.252215 0 18.592307-8.340092 18.592307-18.592307C545.924079 456.093148 537.582964 447.753056 527.331771 447.753056z"
          p-id="8616" fill="#e5e9ef"></path>
    <path d="M656.557157 447.753056c-10.252215 0-18.592307 8.340092-18.592307 18.592307 0 10.252215 8.340092 18.592307 18.592307 18.592307 10.252215 0 18.592307-8.340092 18.592307-18.592307C675.149465 456.093148 666.80835 447.753056 656.557157 447.753056z"
          p-id="8617" fill="#e5e9ef"></path>
    <path d="M511.999998 0c-282.693512 0-511.861885 229.168373-511.861885 511.861885s229.168373 511.861885 511.861885 511.861885 511.861885-229.168373 511.861885-511.861885S794.69351 0 511.999998 0zM751.935193 751.920872c-9.596426 10.140701-22.442131 15.725657-36.169726 15.725657L434.004997 767.646528l-0.404114 0.007162c-0.730474 0.0133-1.462995 0.024554-2.205746 0.024554-0.779582 0-1.567348-0.012277-2.37353-0.046038-1.17858-0.049108-2.168915-0.198476-2.862559-0.323291-69.436994-3.487656-113.924305-29.395959-128.702595-74.959543-9.881863-30.458932-9.820479-57.346316 0.211776-92.805007 0.704897-2.492206 1.462995-5.107181 2.249738-7.825486 7.591202-26.20704 19.060875-65.811223 7.463318-87.235397-4.178231-7.718063-11.529011-12.954152-22.470777-16.007002-19.964248-5.567564-31.988426-24.285709-29.241475-45.518568 2.81652-21.763834 19.482381-37.560083 39.628736-37.560083 3.722963 0 7.526749 0.535067 11.30905 1.590879 23.74655 6.623375 45.362038 20.753038 60.864665 39.784243 16.465338 20.212855 25.483728 44.671464 26.081202 70.731182 0.658859 28.760631-3.005789 56.191267-11.53208 86.326908-0.919743 3.251326-1.961231 6.605983-3.065127 10.158093-10.832298 34.884746-12.330077 50.970525 6.506745 60.007329 8.324746 3.711709 16.866383 6.332822 25.534881 7.841855l10.892659-391.406282c0.003069-0.104353 0.007162-0.208707 0.011254-0.312037l0.024554-0.546321c0.003069-0.065477 0.006138-0.12993 0.010231-0.194384 1.060927-18.986191 16.211616-33.303075 35.242822-33.303075 10.344292 0 20.164771 4.562906 26.945699 12.519345 0.191315 0.224053 0.376491 0.453221 0.556552 0.687505l54.227989 70.564421 99.505112 0 47.615868-68.259437c0.295668-0.423552 0.608728-0.833805 0.940204-1.228711 7.210619-8.607114 17.715534-13.544465 28.820992-13.544465 20.184209 0 36.649548 15.770672 37.483352 35.903727 0.004092 0.077754 0.006138 0.155507 0.008185 0.232238l0.012277 0.421506 12.898906 421.02834C766.557976 728.525236 761.493765 741.819048 751.935193 751.920872z"
          p-id="8618" fill="#e5e9ef"></path>
</svg>