<?xml version="1.0" standalone="no"?><!DOCTYPE svg PUBLIC "-//W3C//DTD SVG 1.1//EN"
        "http://www.w3.org/Graphics/SVG/1.1/DTD/svg11.dtd">
<svg t="1569684424213" class="icon" viewBox="0 0 1024 1024" version="1.1" xmlns="http://www.w3.org/2000/svg" p-id="5285" width="16" height="16"><path d="M512 481.28c92.9792 0 168.6528-75.6736 168.6528-168.6528 0-92.9792-75.6736-168.6528-168.6528-168.6528-92.9792 0-168.6528 75.6736-168.6528 168.6528 0 92.9792 75.6736 168.6528 168.6528 168.6528zM800.256 684.1344c-15.7696-37.2736-38.4-70.656-67.1744-99.4304-28.7744-28.7744-62.2592-51.4048-99.4304-67.1744-38.6048-16.384-79.4624-24.6784-121.5488-24.6784s-82.944 8.2944-121.5488 24.6784c-37.2736 15.7696-70.656 38.4-99.4304 67.1744-28.7744 28.7744-51.4048 62.2592-67.1744 99.4304-16.384 38.6048-24.6784 79.4624-24.6784 121.5488v33.3824c0 22.6304 18.3296 40.96 40.96 40.96h543.9488c22.6304 0 40.96-18.3296 40.96-40.96v-33.3824c-0.2048-42.0864-8.4992-82.944-24.8832-121.5488z" p-id="5286" fill="#e6e6e6"></path></svg>